<svg width="43.000000" height="43.000000" viewBox="0 0 43 43" fill="none" xmlns="http://www.w3.org/2000/svg" xmlns:xlink="http://www.w3.org/1999/xlink">
	<desc>
			Created with Pixso.
	</desc>
	<defs>
		<filter id="filter_18933_1176_dd" x="0.000000" y="0.000000" width="43.000000" height="43.000000" filterUnits="userSpaceOnUse" color-interpolation-filters="sRGB">
			<feFlood flood-opacity="0" result="BackgroundImageFix"/>
			<feColorMatrix in="SourceAlpha" type="matrix" values="0 0 0 0 0 0 0 0 0 0 0 0 0 0 0 0 0 0 127 0" result="hardAlpha"/>
			<feOffset dx="0" dy="4"/>
			<feGaussianBlur stdDeviation="1.33333"/>
			<feComposite in2="hardAlpha" operator="out" k2="-1" k3="1"/>
			<feColorMatrix type="matrix" values="0 0 0 0 0 0 0 0 0 0 0 0 0 0 0 0 0 0 0.25 0"/>
			<feBlend mode="normal" in2="BackgroundImageFix" result="effect_dropShadow_1"/>
			<feBlend mode="normal" in="SourceGraphic" in2="effect_dropShadow_1" result="shape"/>
		</filter>
	</defs>
	<g filter="url(#filter_18933_1176_dd)">
		<path id="Star 2" d="M21.5 0L16.77 12.77L4 17.5L16.77 22.22L21.5 35L26.22 22.22L39 17.5L26.22 12.77L21.5 0Z" fill="#BCEC30" fill-opacity="1.000000" fill-rule="evenodd"/>
		<path id="Star 2" d="M16.77 12.77L4 17.5L16.77 22.22L21.5 35L26.22 22.22L39 17.5L26.22 12.77L21.5 0L16.77 12.77ZM21.5 2.88L17.55 13.55L6.88 17.5L17.55 21.44L21.5 32.11L25.44 21.44L36.11 17.5L25.44 13.55L21.5 2.88Z" fill="#202027" fill-opacity="1.000000" fill-rule="evenodd"/>
	</g>
</svg>
